<?xml version="1.0" encoding="UTF-8" ?>
<!DOCTYPE svg PUBLIC "-//W3C//DTD SVG 1.1//EN" "http://www.w3.org/Graphics/SVG/1.1/DTD/svg11.dtd">
<svg width="512pt" height="512pt" viewBox="0 0 512 512" version="1.1" xmlns="http://www.w3.org/2000/svg">
<g id="#000000ff">
<path fill="#000000" opacity="1.00" d=" M 253.63 0.00 L 258.21 0.00 C 268.68 0.91 278.41 7.82 282.29 17.64 C 284.70 23.10 284.50 29.16 284.45 35.00 C 284.45 123.70 284.43 212.40 284.46 301.10 C 306.26 279.36 327.98 257.54 349.78 235.81 C 357.20 228.26 368.99 225.58 378.96 229.10 C 389.22 232.44 396.99 242.17 398.03 252.91 C 399.16 262.08 395.26 271.38 388.50 277.54 C 351.17 314.86 313.84 352.19 276.51 389.51 C 271.41 394.76 264.31 397.99 256.98 398.18 C 249.00 398.52 241.03 395.22 235.49 389.49 C 197.83 351.82 160.15 314.17 122.50 276.49 C 115.73 270.00 112.47 260.10 114.26 250.87 C 116.18 239.50 125.75 229.95 137.12 228.03 C 146.09 226.33 155.76 229.31 162.21 235.78 C 184.02 257.52 205.75 279.33 227.55 301.07 C 227.56 210.39 227.55 119.70 227.55 29.02 C 227.51 23.91 228.73 18.76 231.31 14.33 C 235.84 6.26 244.46 0.91 253.63 0.00 Z" />
<path fill="#000000" opacity="1.00" d=" M 18.29 343.21 C 29.58 338.73 43.46 342.53 50.81 352.22 C 55.79 358.29 57.35 366.36 56.90 374.03 C 57.39 389.35 54.90 405.44 61.20 419.92 C 69.62 440.88 91.41 455.44 114.01 455.10 C 208.34 455.17 302.66 455.13 396.99 455.12 C 413.02 455.44 429.04 448.75 439.88 436.89 C 449.18 426.97 454.68 413.60 455.03 400.00 C 455.24 389.64 454.99 379.28 455.15 368.92 C 455.30 358.99 461.22 349.49 469.96 344.81 C 479.76 339.31 492.79 340.48 501.44 347.68 C 507.49 352.48 511.17 359.82 512.00 367.45 L 512.00 403.29 C 510.93 421.35 506.04 439.27 496.88 454.92 C 480.80 483.01 452.31 503.74 420.46 509.82 C 414.46 511.03 408.36 511.59 402.26 512.00 L 110.67 512.00 C 86.65 511.30 62.87 502.93 43.97 488.04 C 22.71 471.57 7.50 447.38 2.28 420.96 C 1.04 415.08 0.50 409.08 0.00 403.10 L 0.00 367.64 C 0.86 356.88 8.15 346.97 18.29 343.21 Z" />
</g>
</svg>
